<?xml version="1.0" encoding="utf-8"?>
<!-- Generator: Adobe Illustrator 21.0.0, SVG Export Plug-In . SVG Version: 6.00 Build 0)  -->
<svg version="1.1" id="Слой_1" xmlns="http://www.w3.org/2000/svg" xmlns:xlink="http://www.w3.org/1999/xlink" x="0px" y="0px"
	 viewBox="0 0 20 20" style="enable-background:new 0 0 20 20;" xml:space="preserve">
<style type="text/css">
	.st0{fill-rule:evenodd;clip-rule:evenodd;fill:#5D77BC;}
</style>
<g id="file">
	<g>
		<path class="st0" d="M18.1,5.2c0-0.2-0.1-0.4-0.2-0.6l-4.4-4.4C13.4,0,13.1,0,12.9,0H3.3C2.5,0,1.9,0.7,1.9,1.5v17
			c0,0.8,0.7,1.5,1.5,1.5h13.3c0.8,0,1.5-0.7,1.5-1.5L18.1,5.2L18.1,5.2z M13,1.8l3.3,3.3H13V1.8z M16.7,18.5H3.3v-17h8.1v4.4
			c0,0.4,0.3,0.7,0.7,0.7h4.4V18.5z"/>
	</g>
</g>
</svg>
